<?xml version="1.0" encoding="utf-8"?>
<!-- Generator: Adobe Illustrator 19.0.1, SVG Export Plug-In . SVG Version: 6.00 Build 0)  -->
<svg version="1.1" id="Layer_1" xmlns="http://www.w3.org/2000/svg" xmlns:xlink="http://www.w3.org/1999/xlink" x="0px" y="0px"
	 viewBox="0 0 218.8 244.2" style="enable-background:new 0 0 218.8 244.2;" xml:space="preserve">
<style type="text/css">
	.st0{fill:#231F20;}
	.st1{clip-path:url(#SVGID_2_);fill:#EFBF1B;}
	.st2{clip-path:url(#SVGID_2_);fill:#40BEB0;}
	.st3{clip-path:url(#SVGID_2_);fill:#0AA5DE;}
	.st4{clip-path:url(#SVGID_2_);fill:#231F20;}
	.st5{fill:#D7A229;}
	.st6{fill:#009B8F;}
</style>
<g>
	<g>
		<g>
			<path class="st0" d="M14.7,241.3l1.2-0.1l0.1,2.4c-3.1,0.4-5.7,0.7-7.9,0.7c-2.9,0-5-0.8-6.2-2.5c-1.2-1.7-1.8-4.3-1.8-7.9
				c0-7.1,2.8-10.7,8.5-10.7c2.7,0,4.8,0.8,6.2,2.3c1.4,1.5,2,3.9,2,7.2l-0.2,2.3H3.1c0,2.3,0.4,3.9,1.2,5c0.8,1.1,2.2,1.6,4.3,1.6
				C10.6,241.5,12.7,241.4,14.7,241.3z M13.6,232.4c0-2.5-0.4-4.3-1.2-5.3c-0.8-1-2.1-1.5-3.9-1.5c-1.8,0-3.2,0.5-4.1,1.6
				c-0.9,1.1-1.4,2.8-1.4,5.2H13.6z"/>
			<path class="st0" d="M21.7,243.8v-29.2h3.1v29.2H21.7z"/>
			<path class="st0" d="M45.2,229.6V240c0.1,1,0.9,1.6,2.4,1.8l-0.1,2.4c-2.1,0-3.8-0.5-4.8-1.6c-2.4,1.1-4.9,1.6-7.3,1.6
				c-1.9,0-3.3-0.5-4.3-1.6c-1-1.1-1.5-2.6-1.5-4.6c0-2,0.5-3.4,1.5-4.4c1-0.9,2.6-1.5,4.7-1.7l6.4-0.6v-1.8c0-1.4-0.3-2.4-0.9-3
				c-0.6-0.6-1.4-0.9-2.4-0.9c-2.2,0-4.4,0.1-6.8,0.4l-1.3,0.1l-0.1-2.3c3-0.6,5.6-0.9,7.9-0.9c2.3,0,4,0.5,5,1.6
				C44.7,225.7,45.2,227.3,45.2,229.6z M32.7,237.9c0,2.5,1,3.7,3.1,3.7c1.8,0,3.7-0.3,5.5-0.9l0.9-0.3v-6.7l-6,0.6
				c-1.2,0.1-2.1,0.5-2.6,1.1C33,235.9,32.7,236.7,32.7,237.9z"/>
			<path class="st0" d="M57.7,225.7c-3,0-4.4,1-4.4,3.1c0,1,0.3,1.6,1,2c0.7,0.4,2.2,0.8,4.6,1.2c2.4,0.4,4.1,1,5.1,1.8
				c1,0.8,1.5,2.2,1.5,4.3c0,2.1-0.7,3.6-2,4.6c-1.3,1-3.3,1.5-5.9,1.5c-1.7,0-3.7-0.2-5.9-0.6l-1.2-0.2l0.2-2.6
				c3.1,0.5,5.4,0.7,7,0.7c1.6,0,2.8-0.3,3.6-0.8c0.8-0.5,1.2-1.3,1.2-2.5c0-1.2-0.4-2-1.1-2.4c-0.7-0.4-2.3-0.8-4.6-1.2
				c-2.4-0.4-4.1-0.9-5.1-1.7c-1-0.7-1.5-2.1-1.5-4.1c0-2,0.7-3.4,2.1-4.4c1.4-1,3.1-1.4,5.2-1.4c1.7,0,3.7,0.2,6.2,0.6l1.1,0.2
				l-0.1,2.6C61.8,226,59.4,225.7,57.7,225.7z"/>
			<path class="st0" d="M80.8,226.1h-6.5v9.7c0,2.3,0.2,3.9,0.5,4.6c0.3,0.7,1.1,1.1,2.4,1.1l3.6-0.2l0.2,2.5
				c-1.8,0.3-3.2,0.4-4.2,0.4c-2.1,0-3.6-0.5-4.4-1.5c-0.8-1-1.2-3-1.2-5.9v-10.7h-2.9v-2.6h2.9v-6.2h3v6.2h6.5V226.1z"/>
			<path class="st0" d="M84.5,218.8v-3.5h3.1v3.5H84.5z M84.5,243.8v-20.4h3.1v20.4H84.5z"/>
			<path class="st0" d="M101,223c0.9,0,2.4,0.2,4.6,0.5l1,0.1l-0.1,2.5c-2.2-0.2-3.8-0.4-4.8-0.4c-2.3,0-3.9,0.5-4.7,1.6
				c-0.8,1.1-1.2,3.1-1.2,6.1c0,3,0.4,5,1.2,6.2c0.8,1.2,2.4,1.8,4.8,1.8l4.8-0.4l0.1,2.5c-2.5,0.4-4.4,0.6-5.7,0.6
				c-3.2,0-5.4-0.8-6.6-2.4c-1.2-1.6-1.8-4.4-1.8-8.2s0.7-6.6,2-8.1C95.8,223.8,98,223,101,223z"/>
			<path class="st0" d="M117.6,225.7c-3,0-4.4,1-4.4,3.1c0,1,0.3,1.6,1,2c0.7,0.4,2.2,0.8,4.6,1.2c2.4,0.4,4.1,1,5.1,1.8
				c1,0.8,1.5,2.2,1.5,4.3c0,2.1-0.7,3.6-2,4.6c-1.3,1-3.3,1.5-5.9,1.5c-1.7,0-3.7-0.2-5.9-0.6l-1.2-0.2l0.2-2.6
				c3.1,0.5,5.4,0.7,7,0.7c1.6,0,2.8-0.3,3.6-0.8c0.8-0.5,1.2-1.3,1.2-2.5c0-1.2-0.4-2-1.1-2.4c-0.7-0.4-2.3-0.8-4.6-1.2
				c-2.4-0.4-4.1-0.9-5.1-1.7c-1-0.7-1.5-2.1-1.5-4.1c0-2,0.7-3.4,2.1-4.4c1.4-1,3.1-1.4,5.2-1.4c1.7,0,3.7,0.2,6.2,0.6l1.1,0.2
				l-0.1,2.6C121.7,226,119.3,225.7,117.6,225.7z"/>
			<path class="st0" d="M144,241.3l1.2-0.1l0.1,2.4c-3.1,0.4-5.7,0.7-7.9,0.7c-2.9,0-5-0.8-6.2-2.5c-1.2-1.7-1.8-4.3-1.8-7.9
				c0-7.1,2.8-10.7,8.5-10.7c2.7,0,4.8,0.8,6.2,2.3c1.4,1.5,2,3.9,2,7.2l-0.2,2.3h-13.4c0,2.3,0.4,3.9,1.2,5
				c0.8,1.1,2.2,1.6,4.3,1.6C139.8,241.5,141.9,241.4,144,241.3z M142.9,232.4c0-2.5-0.4-4.3-1.2-5.3c-0.8-1-2.1-1.5-3.9-1.5
				c-1.8,0-3.2,0.5-4.1,1.6c-0.9,1.1-1.4,2.8-1.4,5.2H142.9z"/>
			<path class="st0" d="M165.1,229.6V240c0.1,1,0.9,1.6,2.4,1.8l-0.1,2.4c-2.1,0-3.8-0.5-4.8-1.6c-2.4,1.1-4.9,1.6-7.3,1.6
				c-1.9,0-3.3-0.5-4.3-1.6c-1-1.1-1.5-2.6-1.5-4.6c0-2,0.5-3.4,1.5-4.4c1-0.9,2.6-1.5,4.7-1.7l6.4-0.6v-1.8c0-1.4-0.3-2.4-0.9-3
				c-0.6-0.6-1.4-0.9-2.4-0.9c-2.2,0-4.4,0.1-6.8,0.4l-1.3,0.1l-0.1-2.3c3-0.6,5.6-0.9,7.9-0.9c2.3,0,4,0.5,5,1.6
				C164.5,225.7,165.1,227.3,165.1,229.6z M152.5,237.9c0,2.5,1,3.7,3.1,3.7c1.8,0,3.7-0.3,5.5-0.9l0.9-0.3v-6.7l-6,0.6
				c-1.2,0.1-2.1,0.5-2.6,1.1C152.8,235.9,152.5,236.7,152.5,237.9z"/>
			<path class="st0" d="M171.1,243.8v-20.4h3v2.8c2.4-1.6,4.8-2.7,7.5-3.2v3.1c-1.1,0.2-2.3,0.6-3.6,1c-1.2,0.5-2.2,0.9-2.8,1.2
				l-1,0.5v14.9H171.1z"/>
			<path class="st0" d="M192.4,223c0.9,0,2.4,0.2,4.6,0.5l1,0.1l-0.1,2.5c-2.2-0.2-3.8-0.4-4.8-0.4c-2.3,0-3.9,0.5-4.7,1.6
				c-0.8,1.1-1.2,3.1-1.2,6.1c0,3,0.4,5,1.2,6.2c0.8,1.2,2.4,1.8,4.8,1.8l4.8-0.4l0.1,2.5c-2.5,0.4-4.4,0.6-5.7,0.6
				c-3.2,0-5.4-0.8-6.6-2.4c-1.2-1.6-1.8-4.4-1.8-8.2s0.7-6.6,2-8.1C187.2,223.8,189.4,223,192.4,223z"/>
			<path class="st0" d="M205.6,243.8h-3.1v-29.2h3.1v10c2.2-1,4.3-1.5,6.3-1.5c2.7,0,4.5,0.7,5.5,2.2c0.9,1.5,1.4,4.1,1.4,7.8v10.8
				h-3.1v-10.7c0-2.8-0.3-4.8-0.8-5.8c-0.6-1-1.7-1.6-3.5-1.6c-1.7,0-3.4,0.3-5,0.9l-0.8,0.3V243.8z"/>
		</g>
	</g>
	<g>
		<g>
			<g>
				<defs>
					<circle id="SVGID_1_" cx="109.4" cy="92.5" r="92.5"/>
				</defs>
				<clipPath id="SVGID_2_">
					<use xlink:href="#SVGID_1_"  style="overflow:visible;"/>
				</clipPath>
				<path class="st1" d="M149,52H22.6c-3.2,0-5.8-2.6-5.8-5.8V5.8c0-3.2,2.6-5.8,5.8-5.8h164.7c3.2,0,5.8,2.6,5.8,5.8v2.1
					C193.1,32.2,173.3,52,149,52z"/>
				<path class="st2" d="M193.5,185H17.4c0,0-0.1,0-0.1-0.1v-51.9c0,0,0-0.1,0.1-0.1h132.1c24.3,0,44,19.7,44,44L193.5,185
					C193.5,185,193.5,185,193.5,185z"/>
				<path class="st3" d="M138.5,118.5H7.6v-52h130.9c14.4,0,26,11.7,26,26v0C164.5,106.9,152.8,118.5,138.5,118.5z"/>
				<path class="st4" d="M97.8,66.5H12.3v52H98c1.9-7.8,3-16.5,3-26C101,82.9,99.8,74.3,97.8,66.5z"/>
			</g>
			<path class="st5" d="M62.9,12.5c-15.8,9.2-28.6,22.9-36.7,39.4h68.3C87.4,36.3,76.5,22.7,62.9,12.5z"/>
			<path class="st6" d="M65.6,173.9c13.3-10.8,23.9-24.8,30.5-40.9H26.2C34.7,150.4,48.6,164.8,65.6,173.9z"/>
		</g>
	</g>
</g>
</svg><svg xmlns="http://www.w3.org/2000/svg" width="500" height="500" viewBox="0 0 500 500"><linearGradient id="a" gradientUnits="userSpaceOnUse" x1="214.769" y1="340.925" x2="168.55" y2="315.659"><stop offset="0" stop-color="#355539"/><stop offset=".283" stop-color="#4B762E"/><stop offset="1" stop-color="#618D2E"/></linearGradient><path fill="url(#a)" d="M254.448 276.783l-24.977-11.643-22.659-15.68s-68.837 119.854-70.758 123.367c-1.922 3.514-.777 5.404.016 6.65.793 1.242 8.606 9.953 18.817 15.812 10.211 5.857 21.58 8.145 23.054 8.201 1.474.057 3.684.09 5.747-3.342 2.062-3.431 70.76-123.365 70.76-123.365z"/><linearGradient id="b" gradientUnits="userSpaceOnUse" x1="144.813" y1="369.657" x2="170.708" y2="407.761"><stop offset="0" stop-color="#5B5C5E"/><stop offset=".849" stop-color="#1C1C1C"/><stop offset="1" stop-color="#333434"/></linearGradient><path fill="url(#b)" d="M179.834 400.611c-1.516-.057-13.208-2.41-23.71-8.434-10.502-6.027-18.538-14.986-19.354-16.266-.536-.842-1.223-1.975-1.073-3.676-.702 1.232-1.148 2.021-1.279 2.26-1.928 3.525-.779 5.422.016 6.67s8.633 9.986 18.877 15.863c10.244 5.877 21.649 8.172 23.127 8.229 1.479.057 3.696.09 5.766-3.354.137-.227.573-.979 1.255-2.16-1.359.929-2.649.907-3.625.868z"/><linearGradient id="c" gradientUnits="userSpaceOnUse" x1="139.653" y1="365.568" x2="189.592" y2="395.015"><stop offset="0" stop-color="#C9CACC"/><stop offset=".189" stop-color="#D8D9DA"/><stop offset=".866" stop-color="#828487"/><stop offset=".896" stop-color="#86888B"/><stop offset=".929" stop-color="#949598"/><stop offset=".964" stop-color="#A9ABAD"/><stop offset=".999" stop-color="#C8C9CB"/><stop offset="1" stop-color="#C9CACC"/></linearGradient><path fill="url(#c)" d="M191.211 381.506c-1.529-.059-13.324-2.434-23.917-8.51-10.594-6.078-18.7-15.115-19.522-16.406-.558-.875-1.279-2.059-1.068-3.865-6.488 11.32-9.411 16.242-9.883 17.105-1.945 3.557-.786 5.471.016 6.729.803 1.26 8.709 10.074 19.042 16.002s21.837 8.244 23.329 8.301 3.729.09 5.816-3.383c.503-.836 3.379-5.637 9.793-16.811-1.354.898-2.634.873-3.606.838z"/><linearGradient id="d" gradientUnits="userSpaceOnUse" x1="199.984" y1="261.425" x2="249.626" y2="290.697"><stop offset="0" stop-color="#C9CACC"/><stop offset=".189" stop-color="#D8D9DA"/><stop offset=".866" stop-color="#828487"/><stop offset=".896" stop-color="#86888B"/><stop offset=".929" stop-color="#949598"/><stop offset=".964" stop-color="#A9ABAD"/><stop offset=".999" stop-color="#C8C9CB"/><stop offset="1" stop-color="#C9CACC"/></linearGradient><path fill="url(#d)" d="M250.937 277.166c-1.511-.059-13.167-2.404-23.635-8.41-10.469-6.004-18.479-14.936-19.292-16.211-.551-.865-1.264-2.035-1.056-3.82-6.412 11.186-10.71 18.566-11.177 19.42-1.922 3.514-.777 5.404.016 6.65.793 1.242 10.017 7.438 20.228 13.297 10.211 5.857 21.347 9.205 22.821 9.262 1.474.055 3.684.09 5.748-3.342.496-.828 3.573-6.631 9.912-17.674-1.339.887-2.605.863-3.565.828z"/><linearGradient id="e" gradientUnits="userSpaceOnUse" x1="202.972" y1="258.799" x2="262.748" y2="258.799"><stop offset="0" stop-color="#9E9E9E"/><stop offset=".866" stop-color="#828487"/></linearGradient><path opacity=".5" fill="url(#e)" d="M259.184 262.92c-1.511-.059-13.167-2.404-23.635-8.41-10.469-6.006-18.479-14.936-19.292-16.211-.551-.865-1.264-2.035-1.056-3.82-6.412 11.186-10.71 18.566-11.177 19.42-1.922 3.514-.777 5.404.016 6.648.793 1.244 10.016 7.439 20.228 13.297 10.211 5.857 21.347 9.207 22.822 9.262 1.473.057 3.683.092 5.746-3.342.497-.826 3.573-6.629 9.912-17.672-1.338.887-2.603.863-3.564.828z"/><path fill="#1F1F20" d="M144.594 113.464v29.266h-13.472c-6.271 0-10.917 7.664-10.917 11.845v-2.323 68.75c0 18.35-22.297 21.369-22.297 21.369s21.601 3.717 21.601 19.51v161.424c0 8.314 3.948 17.418 14.168 17.418h38.091v29.266h-54.35c-19.045 0-26.014-18.115-26.014-28.801v-172.107s-9.755-13.936-13.704-13.936h-5.11v-26.512s.845.033 3.4.033c5.561 0 15.646-3.252 15.646-23.924 0 0-.186-46.022-.186-60.35s6.548-30.928 25.189-30.928h27.955zM324.265 290.943v29.266h13.471c6.271 0 10.917 7.662 10.917 11.844v-2.322 29.926c0 18.35 22.297 21.369 22.297 21.369s-21.6 3.717-21.6 19.51v22.77c0 8.314-3.948 17.418-14.169 17.418h-176.097v29.266h192.354c19.047 0 26.014-18.115 26.014-28.801v-27.113c0-13.006 9.756-20.275 13.705-20.275h5.109v-26.512s-.846.033-3.4.033c-5.561 0-15.646-3.252-15.646-23.924 0 0 .187-7.197.187-21.525s-6.549-30.928-25.189-30.928c-18.643-.002-27.953-.002-27.953-.002z"/><linearGradient id="f" gradientUnits="userSpaceOnUse" x1="286.458" y1="285.783" x2="286.458" y2="30.012"><stop offset="0" stop-color="#48701F"/><stop offset="1" stop-color="#618D2E"/></linearGradient><circle fill="url(#f)" cx="286.458" cy="157.897" r="127.885"/><linearGradient id="g" gradientUnits="userSpaceOnUse" x1="286.458" y1="261.44" x2="286.458" y2="30.519"><stop offset="0" stop-color="#59812D"/><stop offset="1" stop-color="#618D2E"/></linearGradient><circle fill="url(#g)" cx="286.458" cy="157.897" r="125.928"/><linearGradient id="h" gradientUnits="userSpaceOnUse" x1="286.459" y1="62.71" x2="286.459" y2="253.084"><stop offset="0" stop-color="#4A752E"/><stop offset="1" stop-color="#618D2E"/></linearGradient><circle fill="url(#h)" cx="286.458" cy="157.897" r="95.188"/><radialGradient id="i" cx="327.281" cy="152.523" r="146.571" fx="282.25" fy="152.502" gradientUnits="userSpaceOnUse"><stop offset=".272" stop-color="#E5F1FA"/><stop offset=".405" stop-color="#E1EDF8"/><stop offset=".545" stop-color="#D4E3F4"/><stop offset=".645" stop-color="#D1DFEF"/><stop offset=".769" stop-color="#C9D5DF"/><stop offset=".842" stop-color="#C3CCD3"/><stop offset=".905" stop-color="#BCC5CD"/><stop offset=".998" stop-color="#A8B3BD"/><stop offset="1" stop-color="#A7B2BD"/></radialGradient><circle fill="url(#i)" cx="286.458" cy="157.897" r="92.724"/><linearGradient id="j" gradientUnits="userSpaceOnUse" x1="293.563" y1="73.376" x2="371.413" y2="187.757"><stop offset="0" stop-color="#D9E7F6"/><stop offset=".189" stop-color="#E7F2FB"/><stop offset=".545" stop-color="#F0F7FD"/><stop offset=".866" stop-color="#E5F1FA"/><stop offset=".931" stop-color="#E1EDF8"/><stop offset="1" stop-color="#D4E3F4"/></linearGradient><path fill="url(#j)" d="M287.303 112.929c1.654-.201 3.335-.316 5.041-.316 22.872 0 41.412 18.541 41.412 41.411 0 7.772-2.145 15.041-5.871 21.255l33.75 8.357c3.891-9.091 6.05-19.099 6.05-29.613 0-41.609-33.73-75.341-75.341-75.341-2.499 0-4.971.128-7.407.367l2.366 33.88z"/><linearGradient id="k" gradientUnits="userSpaceOnUse" x1="777.25" y1="87.255" x2="807.913" y2="132.375" gradientTransform="matrix(-1 0 0 -1 1023.199 313.333)"><stop offset="0" stop-color="#D9E7F6"/><stop offset=".189" stop-color="#E7F2FB"/><stop offset=".866" stop-color="#E5F1FA"/><stop offset=".931" stop-color="#E1EDF8"/><stop offset="1" stop-color="#D4E3F4"/></linearGradient><path opacity=".5" fill="url(#k)" d="M250.866 210.319c-.776.095-1.567.149-2.37.149-10.763 0-19.487-8.724-19.487-19.485 0-3.657 1.01-7.077 2.762-10.001l-15.88-3.932c-1.832 4.277-2.848 8.986-2.848 13.934 0 19.58 15.873 35.451 35.453 35.451 1.177 0 2.338-.061 3.484-.172l-1.114-15.944z"/></svg>